<?xml version="1.0" encoding="iso-8859-1"?>
<!-- Uploaded to: SVG Repo, www.svgrepo.com, Generator: SVG Repo Mixer Tools -->
<svg fill="#000000" version="1.1" id="Capa_1" xmlns="http://www.w3.org/2000/svg" xmlns:xlink="http://www.w3.org/1999/xlink" 
	 viewBox="0 0 60 60" xml:space="preserve">
<g>
	<g>
		<g>
			<path d="M59,0H15l0,0c-0.1,0-0.2,0-0.3,0.1h-0.1c-0.1,0.1-0.2,0.1-0.3,0.2l-14,14c-0.1,0.1-0.1,0.2-0.2,0.3v0.1
				C0.1,14.8,0,14.9,0,15l0,0v45h2V16h13c0.6,0,1-0.4,1-1V2h42v58h2V1C60,0.4,59.6,0,59,0z M14,14H3.4l5.3-5.3L14,3.4V14L14,14z"/>
			<path d="M18,21v18c0,0.3,0.2,0.6,0.4,0.8l11,8c0.2,0.1,0.4,0.2,0.6,0.2s0.4-0.1,0.6-0.2l11-8c0.2-0.2,0.4-0.5,0.4-0.8V21
				c0-0.6-0.4-1-1-1H19C18.4,20,18,20.4,18,21z M30,45.8l-10-7.3c0,0,0-4.3,0-8.5h9v8h-2v2h6v-2h-2v-8h9v8.5L30,45.8z M40,22v6H20
				c0-2.8,0-6,0-6H40z"/>
			<rect x="23" y="24" width="2" height="2"/>
			<rect x="27" y="24" width="2" height="2"/>
			<rect x="31" y="24" width="2" height="2"/>
			<rect x="35" y="24" width="2" height="2"/>
			<rect x="45" y="20" width="2" height="2"/>
			<rect x="49" y="20" width="2" height="2"/>
			<rect x="53" y="20" width="2" height="2"/>
			<rect x="45" y="24" width="2" height="2"/>
			<rect x="49" y="24" width="2" height="2"/>
			<rect x="53" y="24" width="2" height="2"/>
			<rect x="45" y="28" width="2" height="2"/>
			<rect x="49" y="28" width="2" height="2"/>
			<rect x="53" y="28" width="2" height="2"/>
			<rect x="45" y="32" width="2" height="2"/>
			<rect x="49" y="32" width="2" height="2"/>
			<rect x="53" y="32" width="2" height="2"/>
			<rect x="45" y="36" width="2" height="2"/>
			<rect x="49" y="36" width="2" height="2"/>
			<rect x="53" y="36" width="2" height="2"/>
			<rect x="45" y="40" width="2" height="2"/>
			<rect x="49" y="40" width="2" height="2"/>
			<rect x="53" y="40" width="2" height="2"/>
			<rect x="45" y="44" width="2" height="2"/>
			<rect x="41" y="44" width="2" height="2"/>
			<rect x="49" y="44" width="2" height="2"/>
			<rect x="53" y="44" width="2" height="2"/>
			<rect x="5" y="20" width="2" height="2"/>
			<rect x="9" y="20" width="2" height="2"/>
			<rect x="13" y="20" width="2" height="2"/>
			<rect x="5" y="24" width="2" height="2"/>
			<rect x="9" y="24" width="2" height="2"/>
			<rect x="13" y="24" width="2" height="2"/>
			<rect x="5" y="28" width="2" height="2"/>
			<rect x="9" y="28" width="2" height="2"/>
			<rect x="13" y="28" width="2" height="2"/>
			<rect x="5" y="32" width="2" height="2"/>
			<rect x="9" y="32" width="2" height="2"/>
			<rect x="13" y="32" width="2" height="2"/>
			<rect x="5" y="36" width="2" height="2"/>
			<rect x="9" y="36" width="2" height="2"/>
			<rect x="13" y="36" width="2" height="2"/>
			<rect x="5" y="40" width="2" height="2"/>
			<rect x="9" y="40" width="2" height="2"/>
			<rect x="13" y="40" width="2" height="2"/>
			<rect x="5" y="44" width="2" height="2"/>
			<rect x="9" y="44" width="2" height="2"/>
			<rect x="13" y="44" width="2" height="2"/>
			<rect x="17" y="44" width="2" height="2"/>
			<rect x="44" y="6" width="10" height="2"/>
			<rect x="33" y="11" width="21" height="2"/>
			<rect x="5" y="51" width="20" height="2"/>
			<rect x="27" y="51" width="9" height="2"/>
			<rect x="38" y="51" width="17" height="2"/>
			<rect x="5" y="56" width="20" height="2"/>
			<rect x="27" y="56" width="9" height="2"/>
			<rect x="38" y="56" width="17" height="2"/>
		</g>
	</g>
	<g>
	</g>
	<g>
	</g>
	<g>
	</g>
	<g>
	</g>
	<g>
	</g>
	<g>
	</g>
	<g>
	</g>
	<g>
	</g>
	<g>
	</g>
	<g>
	</g>
	<g>
	</g>
	<g>
	</g>
	<g>
	</g>
	<g>
	</g>
	<g>
	</g>
</g>
</svg>