<?xml version="1.0" encoding="iso-8859-1"?>
<!-- Uploaded to: SVG Repo, www.svgrepo.com, Generator: SVG Repo Mixer Tools -->
<svg fill="#000000" version="1.1" id="Capa_1" xmlns="http://www.w3.org/2000/svg" xmlns:xlink="http://www.w3.org/1999/xlink" 
	 viewBox="0 0 60 60" xml:space="preserve">
<g>
	<g>
		<g>
			<path d="M47,39c0,7.7-6.3,14-14,14h-6c-7.7,0-14-6.3-14-14V29h-2v10c0,8.8,7.2,16,16,16h6c8.8,0,16-7.2,16-16V29h-2V39z"/>
			<path d="M28,29v10c0,0.6,0.4,1,1,1h4v-2h-3v-9H28z"/>
			<rect x="11" y="19" width="2" height="2"/>
			<rect x="15" y="19" width="2" height="2"/>
			<rect x="19" y="19" width="2" height="2"/>
			<rect x="23" y="19" width="2" height="2"/>
			<rect x="27" y="19" width="2" height="2"/>
			<rect x="31" y="19" width="2" height="2"/>
			<rect x="35" y="19" width="6" height="2"/>
			<rect x="43" y="19" width="2" height="2"/>
			<rect x="47" y="19" width="2" height="2"/>
			<rect x="11" y="15" width="6" height="2"/>
			<rect x="19" y="15" width="2" height="2"/>
			<rect x="23" y="15" width="6" height="2"/>
			<rect x="31" y="15" width="2" height="2"/>
			<rect x="35" y="15" width="2" height="2"/>
			<rect x="39" y="15" width="2" height="2"/>
			<rect x="43" y="15" width="2" height="2"/>
			<rect x="47" y="15" width="2" height="2"/>
			<rect x="11" y="11" width="2" height="2"/>
			<rect x="15" y="11" width="2" height="2"/>
			<rect x="19" y="11" width="2" height="2"/>
			<rect x="23" y="11" width="2" height="2"/>
			<rect x="27" y="11" width="2" height="2"/>
			<rect x="31" y="11" width="2" height="2"/>
			<rect x="35" y="11" width="2" height="2"/>
			<rect x="39" y="11" width="2" height="2"/>
			<rect x="43" y="11" width="6" height="2"/>
			<rect x="11" y="7" width="2" height="2"/>
			<rect x="15" y="7" width="2" height="2"/>
			<rect x="19" y="7" width="6" height="2"/>
			<rect x="27" y="7" width="2" height="2"/>
			<rect x="31" y="7" width="2" height="2"/>
			<rect x="35" y="7" width="6" height="2"/>
			<rect x="43" y="7" width="2" height="2"/>
			<rect x="47" y="7" width="2" height="2"/>
			<polygon points="58,24 2,24 2,21 0,21 0,24 0,26 0,29 2,29 2,26 58,26 58,29 60,29 60,26 60,24 60,21 58,21 			"/>
			<path d="M2,2h3V0H1C0.4,0,0,0.4,0,1v4h2V2z"/>
			<path d="M59,0h-4v2h3v3h2V1C60,0.4,59.6,0,59,0z"/>
			<path d="M58,58h-3v2h4c0.6,0,1-0.4,1-1v-4h-2V58z"/>
			<path d="M2,55H0v4c0,0.6,0.4,1,1,1h4v-2H2V55z"/>
			<rect x="27" y="48" width="6" height="2"/>
		</g>
	</g>
	<g>
	</g>
	<g>
	</g>
	<g>
	</g>
	<g>
	</g>
	<g>
	</g>
	<g>
	</g>
	<g>
	</g>
	<g>
	</g>
	<g>
	</g>
	<g>
	</g>
	<g>
	</g>
	<g>
	</g>
	<g>
	</g>
	<g>
	</g>
	<g>
	</g>
</g>
</svg>