<svg width="122.88" height="115.7" xmlns="http://www.w3.org/2000/svg" data-name="Layer 1">
 <title>face-recognition</title>

 <g>
  <title>Layer 1</title>
  <path stroke="#bfbfbf" fill="#bfbfbf" id="svg_1" d="m7.48,19.05a3.74,3.74 0 0 1 -7.48,0l0,-15.31a3.75,3.75 0 0 1 3.74,-3.74l0.34,0l21.07,0a3.73,3.73 0 1 1 0,7.45l-17.67,0l0,11.6zm9.34,13.4c21.83,-27 47,-41.63 65.87,-17.64c21.7,1.14 31,34.08 16.07,50.33a5.85,5.85 0 0 1 3,0.68l0.15,0.09a5.09,5.09 0 0 1 2.29,3a10,10 0 0 1 -0.19,5.5l-0.07,0.22c-0.27,0.8 -0.51,1.82 -0.75,2.88c-1,4.33 -2.1,9.1 -7,8.84a5.16,5.16 0 0 1 -0.79,-0.09c-0.19,9 -4.58,13.11 -10.32,18.51l-2.21,2.09c-5.81,5.6 -12.17,8.32 -18.63,8.33s-13.24,-2.83 -19.34,-8.27l-2.16,-1.92c-5.63,-4.84 -10.33,-8.89 -11.22,-18.76l-0.52,0a6.71,6.71 0 0 1 -3.31,-0.87c-2.31,-1.31 -3.56,-3.81 -4.17,-6.66a32.9,32.9 0 0 1 -0.14,-10.63a2.12,2.12 0 0 1 0.13,-0.51c0.81,-2.26 1.83,-3.48 3.1,-4c-0.58,-10.77 1.24,-27.82 -9.81,-31.16l0.02,0.04zm63,2.55a23.13,23.13 0 0 1 -15.42,6.91c-1.52,0.27 -3,0.45 -4.48,0.63c-4.95,0.61 -9.89,1.22 -16.44,5.75a15.8,15.8 0 0 0 -6.26,7.71a19.46,19.46 0 0 0 -0.3,10.71a2.17,2.17 0 0 1 -2.83,2.62l-2.5,-0.92c-2.05,-0.71 -3.33,-1 -3.94,0.51a28.43,28.43 0 0 0 0.12,8.9c0.38,1.74 1,3.2 2.07,3.8a2.47,2.47 0 0 0 1.23,0.31a5.93,5.93 0 0 0 1.77,-0.29a2.27,2.27 0 0 1 0.65,-0.12a2.17,2.17 0 0 1 2.21,2.11c0.23,9.8 4.58,13.55 9.87,18.1l2.21,1.92c5.31,4.73 10.9,7.17 16.38,7.17s10.66,-2.33 15.63,-7.13l2.21,-2.09c5.55,-5.22 9.64,-9.06 8.85,-18.41a2.24,2.24 0 0 1 0.36,-1.38a2.17,2.17 0 0 1 3,-0.61a5.14,5.14 0 0 0 1.16,0.6a3.27,3.27 0 0 0 0.93,0.21c1.32,0.07 2,-2.84 2.6,-5.49a32.31,32.31 0 0 1 0.88,-3.31a5.91,5.91 0 0 0 0.21,-3a0.9,0.9 0 0 0 -0.32,-0.51l-0.06,0a2,2 0 0 0 -1.1,-0.14a7.67,7.67 0 0 0 -3.68,1.63a2.16,2.16 0 0 1 -3.41,-2.19c2,-11.9 1.11,-19.66 -1.43,-24.94c-2.22,-4.64 -5.76,-7.44 -9.6,-9.54l-0.62,0.47l0.05,0.01zm-22.46,22.9c2.33,0.87 2.82,2.81 1.52,3.54c-1.53,0.86 -3.45,-0.42 -4.94,-0.9c-3.89,-1.24 -8.51,-1.38 -11.86,0.72a18,18 0 0 0 -2.73,2.16a9.5,9.5 0 0 1 1.65,-3.34c3.38,-4.25 11.86,-4.5 16.36,-2.18zm-12.1,8.33a0.93,0.93 0 0 1 -1.21,-0.68a1.12,1.12 0 0 1 0.59,-1.38a16,16 0 0 1 11.59,0a1.11,1.11 0 0 1 0.62,1.36a0.92,0.92 0 0 1 -1.19,0.7a17.29,17.29 0 0 0 -1.91,-0.57a2.91,2.91 0 0 1 0.1,0.72a2.69,2.69 0 0 1 -5.37,0a2.63,2.63 0 0 1 0.2,-1a14,14 0 0 0 -3.42,0.88l0,-0.03zm24.88,-8.33c-2.33,0.87 -2.82,2.81 -1.52,3.54c1.53,0.86 3.45,-0.42 4.94,-0.9c3.89,-1.24 8.5,-1.38 11.86,0.72a18,18 0 0 1 2.73,2.16a9.5,9.5 0 0 0 -1.65,-3.34c-3.38,-4.25 -11.86,-4.5 -16.36,-2.18zm4.35,7.52a2.77,2.77 0 0 0 -0.18,1a2.69,2.69 0 0 0 5.37,0a2.61,2.61 0 0 0 -0.28,-1.19a16.93,16.93 0 0 1 3.54,0.78a0.93,0.93 0 0 0 1.18,-0.75a1.13,1.13 0 0 0 -0.65,-1.35a18.67,18.67 0 0 0 -5.8,-0.94a18,18 0 0 0 -5.72,1a1.14,1.14 0 0 0 -0.66,1.35a1,1 0 0 0 1.18,0.74a17.36,17.36 0 0 1 2,-0.55l0.02,-0.09zm-15.22,21.74a1.63,1.63 0 0 1 2.09,-2.5a3.75,3.75 0 0 0 2.35,1a3.82,3.82 0 0 0 2.45,-1.06a1.61,1.61 0 0 1 2.28,0.22a1.63,1.63 0 0 1 -0.22,2.28a7,7 0 0 1 -4.56,1.79a6.64,6.64 0 0 1 -4.39,-1.78l0,0.05zm-4.85,10.07a1.71,1.71 0 1 1 1.59,-3a16.69,16.69 0 0 0 7.79,2.13a15.67,15.67 0 0 0 7.66,-2.11a1.71,1.71 0 1 1 1.66,3a18.73,18.73 0 0 1 -9.31,2.51a20.12,20.12 0 0 1 -9.39,-2.51l0,-0.02zm61,-0.58a3.74,3.74 0 1 1 7.48,0l0,15.35a3.75,3.75 0 0 1 -3.74,3.74l-0.34,0l-21.09,0a3.73,3.73 0 1 1 0,-7.45l17.67,0l0,-11.64l0.02,0zm7.48,-77.6a3.74,3.74 0 1 1 -7.48,0l0,-11.58l-17.69,0a3.73,3.73 0 1 1 0,-7.45l21.07,0l0.34,0a3.75,3.75 0 0 1 3.74,3.74l0,15.29l0.02,0zm-122.9,77.6a3.74,3.74 0 0 1 7.48,0l0,11.58l17.67,0a3.73,3.73 0 1 1 0,7.45l-21.07,0l-0.34,0a3.75,3.75 0 0 1 -3.74,-3.68l0,-15.35z"/>
 </g>
</svg>