<!DOCTYPE svg PUBLIC "-//W3C//DTD SVG 1.1//EN" "http://www.w3.org/Graphics/SVG/1.1/DTD/svg11.dtd">
<!-- Uploaded to: SVG Repo, www.svgrepo.com, Transformed by: SVG Repo Mixer Tools -->
<svg height="800px" width="800px" version="1.1" id="_x32_" xmlns="http://www.w3.org/2000/svg" xmlns:xlink="http://www.w3.org/1999/xlink" viewBox="0 0 512 512" xml:space="preserve" fill="#bfbfbf" stroke="#bfbfbf">
<g id="SVGRepo_bgCarrier" stroke-width="0"/>
<g id="SVGRepo_tracerCarrier" stroke-linecap="round" stroke-linejoin="round"/>
<g id="SVGRepo_iconCarrier"> <style type="text/css"> .st0{fill:#bfbfbf;} </style> <g> <path class="st0" d="M429.823,409.401c-11.741-17.577-29.574-27.295-46.322-33.618c-8.41-3.157-16.624-5.492-23.859-7.474 c-7.227-1.965-13.508-3.618-17.725-5.213c-7.384-2.738-15.186-6.289-20.628-10.112c-2.722-1.899-4.81-3.856-6.027-5.517 c-1.225-1.702-1.562-2.878-1.578-3.906c0-7.103,0-15.974,0-27.666c9.447-10.508,23.021-26.794,28.595-52.618 c1.949-0.88,3.873-1.875,5.731-3.166c4.62-3.19,8.542-7.819,11.864-14.116c3.346-6.323,6.306-14.405,9.463-25.463 c1.603-5.607,2.343-10.474,2.343-14.815c0.008-4.999-1.028-9.332-2.911-12.85c-2.482-4.678-6.29-7.457-9.701-9.002l7.703-11.478 v-12.727c0.732-0.995,1.2-1.908,1.085-2.631v-27.567l19.6-39.184c4.966-9.932,1.127-22.018-8.666-27.263L265.693,2.43 c-6.05-3.24-13.327-3.24-19.378,0L133.21,63.015c-9.784,5.245-13.624,17.331-8.657,27.263l19.6,39.209v27.543 c-0.123,0.748,0.288,1.66,1.085,2.696v12.662l7.704,11.46c-0.798,0.354-1.62,0.757-2.467,1.275 c-2.664,1.644-5.352,4.218-7.235,7.745c-1.883,3.519-2.919,7.851-2.91,12.85c0,4.341,0.74,9.208,2.343,14.815 c4.226,14.726,8.041,24.238,12.982,31.218c2.475,3.461,5.287,6.24,8.345,8.361c1.858,1.29,3.783,2.286,5.731,3.166 c5.574,25.824,19.148,42.111,28.595,52.618c0,11.692,0,20.562,0,27.666c0,0.872-0.354,2.13-1.702,3.93 c-1.989,2.672-6.108,5.912-11,8.657c-4.876,2.771-10.483,5.18-15.391,6.907c-5.764,2.047-15.054,4.168-25.455,7.153 c-15.629,4.522-34.111,11.033-49.149,23.925c-7.506,6.446-14.092,14.544-18.729,24.607c-4.636,10.056-7.301,22.01-7.292,35.986 c0,3.248,0.14,6.602,0.428,10.072c0.222,2.434,1.142,4.407,2.236,6.034c2.064,3.042,4.81,5.295,8.246,7.622 c6.019,3.979,14.364,7.876,25.043,11.699c31.958,11.396,84.881,21.829,150.449,21.846c53.268,0,98.232-6.914,130.329-15.605 c16.057-4.349,28.875-9.118,38.141-13.878c4.646-2.393,8.394-4.768,11.37-7.358c1.488-1.316,2.795-2.688,3.889-4.325 c1.094-1.627,2.015-3.6,2.228-6.034c0.288-3.461,0.428-6.816,0.428-10.046C442.419,436.114,437.633,421.093,429.823,409.401z M231.936,137.544c0-13.294,10.77-24.065,24.073-24.065c13.286,0,24.056,10.77,24.056,24.065v2.31 c0,13.287-10.77,24.065-24.056,24.065c-13.303,0-24.073-10.778-24.073-24.065V137.544z M236.466,460.639l-54.806-86.517 c4.991-2.088,10.104-4.727,14.84-7.777l31.366,45.104l15.128-28.455L236.466,460.639z M227.117,398.837l-25.273-36.332 c2.31-1.891,4.505-3.897,6.306-6.256c2.54-3.33,4.472-7.49,4.596-12.218l35.386,15.276L227.117,398.837z M212.795,336.887 c0-6.462,0-14.142,0-23.761v-2.77l-1.858-2.072c-9.874-10.993-23.234-25.586-27.871-51.516l-0.732-4.144l-3.955-1.414 c-2.524-0.896-4.439-1.817-6.116-2.984c-2.475-1.743-4.72-4.127-7.342-9.011c-2.59-4.86-5.328-12.119-8.328-22.65 c-1.324-4.604-1.792-8.181-1.792-10.845c0.008-3.083,0.6-4.884,1.2-6.026c0.913-1.653,2.032-2.36,3.454-2.936 c0.642-0.246,1.29-0.378,1.842-0.468l14.873,22.157l6.363-37.285l0.699-2.336c19.42,6.159,44.644,11.1,72.779,11.1 c28.06,0,53.366-4.9,72.794-11.041l0.674,2.277l6.364,37.285l14.873-22.141c0.937,0.148,2.195,0.46,3.166,1.102 c0.83,0.535,1.504,1.151,2.121,2.286c0.6,1.142,1.192,2.943,1.209,6.026c0,2.664-0.477,6.24-1.792,10.845 c-3.988,14.059-7.564,22.231-10.853,26.77c-1.644,2.293-3.149,3.724-4.818,4.892c-1.677,1.168-3.592,2.089-6.116,2.984 l-3.963,1.414l-0.724,4.144c-4.636,25.93-17.998,40.524-27.871,51.516l-1.858,2.072v2.77c0,9.62,0,17.299,0,23.761l-43.204,18.655 L212.795,336.887z M299.262,344.031c0.107,4.572,1.883,8.707,4.342,12.012c1.841,2.483,4.053,4.636,6.47,6.585l-25.191,36.208 l-21.006-39.53L299.262,344.031z M275.543,460.655l-6.528-77.653l15.12,28.447l31.308-45.022c1.044,0.667,2.089,1.324,3.182,1.949 c3.789,2.154,7.794,3.98,11.798,5.664L275.543,460.655z"/> </g> </g>
</svg>