<?xml version="1.0" encoding="UTF-8"?>
<svg xmlns="http://www.w3.org/2000/svg" id="Layer_1" data-name="Layer 1" viewBox="0 0 24 24" width="512" height="512"><path d="M24,11c0-1.568-.752-3.04-2-3.978v-.022c0-1.897-1.327-3.489-3.102-3.898-.409-1.774-2.001-3.102-3.898-3.102-1.194,0-2.266,.526-3,1.357-.734-.832-1.806-1.357-3-1.357-1.897,0-3.489,1.327-3.898,3.102-1.774,.409-3.102,2.001-3.102,3.898v.022c-1.248,.938-2,2.41-2,3.978,0,.886,.235,1.737,.686,2.5-.45,.763-.686,1.614-.686,2.5,0,1.686,.858,3.244,2.267,4.166,.718,2.279,2.812,3.834,5.233,3.834,1.858,0,3.504-.926,4.5-2.341,.996,1.415,2.642,2.341,4.5,2.341,2.422,0,4.515-1.556,5.234-3.834,1.408-.921,2.266-2.48,2.266-4.166,0-.886-.235-1.737-.686-2.5,.45-.763,.686-1.614,.686-2.5ZM7.5,22c-1.634,0-3.033-1.115-3.401-2.712l-.103-.443-.4-.214c-.985-.527-1.597-1.535-1.597-2.631,0-.675,.234-1.322,.678-1.872l.508-.628-.508-.628c-.444-.549-.678-1.196-.678-1.872,0-1.07,.591-2.067,1.543-2.603l.62-.348s-.163-.93-.163-1.049c0-1.103,.897-2,2-2h1v-1c0-1.103,.897-2,2-2s2,.897,2,2v4h-2.268c-.346-.598-.992-1-1.732-1-1.105,0-2,.895-2,2s.895,2,2,2c.74,0,1.386-.402,1.732-1h2.268v5h-2.268c-.346-.598-.992-1-1.732-1-1.105,0-2,.895-2,2s.895,2,2,2c.74,0,1.386-.402,1.732-1h2.268v1.5c0,1.93-1.57,3.5-3.5,3.5Zm13.822-7.872c.444,.549,.678,1.196,.678,1.872,0,1.096-.612,2.104-1.596,2.631l-.4,.214-.102,.442c-.369,1.597-1.768,2.712-3.402,2.712-1.93,0-3.5-1.57-3.5-3.5v-4.5h5v-3.268c.598-.346,1-.992,1-1.732,0-1.105-.895-2-2-2s-2,.895-2,2c0,.74,.402,1.386,1,1.732v1.268h-3V4c0-1.103,.897-2,2-2s2,.897,2,2v1h1c1.103,0,2,.897,2,2,0,.12-.163,1.049-.163,1.049l.62,.348c.952,.535,1.543,1.532,1.543,2.603,0,.675-.234,1.322-.678,1.872l-.508,.628,.508,.628Z"/></svg>
